<?xml version="1.0" encoding="UTF-8"?>
<!DOCTYPE svg PUBLIC "-//W3C//DTD SVG 1.1//EN" "http://www.w3.org/Graphics/SVG/1.1/DTD/svg11.dtd">
<svg xmlns="http://www.w3.org/2000/svg" version="1.1" width="2160px" height="1620px" style="shape-rendering:geometricPrecision; text-rendering:geometricPrecision; image-rendering:optimizeQuality; fill-rule:evenodd; clip-rule:evenodd" xmlns:xlink="http://www.w3.org/1999/xlink">
<g><path style="opacity:0.927" fill="#000000" d="M 695.5,442.5 C 738.324,441.741 773.324,458.075 800.5,491.5C 824.289,476.434 850.122,468.767 878,468.5C 933.992,463.374 978.992,483.041 1013,527.5C 1026.8,506.033 1045.63,490.866 1069.5,482C 1100.94,470.637 1132.94,469.637 1165.5,479C 1191.56,489.402 1211.72,506.569 1226,530.5C 1230.74,538.922 1235.07,547.588 1239,556.5C 1309.63,499.218 1389.46,479.051 1478.5,496C 1553.61,514.296 1614.11,554.463 1660,616.5C 1730.08,716.026 1749.75,824.36 1719,941.5C 1691.86,1031.29 1637.02,1098.12 1554.5,1142C 1468.66,1180.69 1383.66,1178.36 1299.5,1135C 1292,1130.75 1284.67,1126.25 1277.5,1121.5C 1265.29,1135.5 1249.95,1144.34 1231.5,1148C 1205.42,1151.57 1179.42,1155.57 1153.5,1160C 1113.68,1163.55 1078.35,1152.89 1047.5,1128C 1039.91,1120.42 1033.08,1112.25 1027,1103.5C 1009.72,1143.1 980.221,1168.94 938.5,1181C 899.89,1188.88 864.89,1181.21 833.5,1158C 799.924,1133.38 778.758,1100.54 770,1059.5C 763.128,1026.5 760.795,993.163 763,959.5C 768.791,911.54 772.624,863.707 774.5,816C 774.244,792.61 771.911,769.443 767.5,746.5C 755.261,761.299 744.761,777.299 736,794.5C 710.034,848.96 700.034,906.294 706,966.5C 708.366,1000.79 711.199,1034.62 714.5,1068C 714.374,1096.25 703.708,1119.58 682.5,1138C 631.238,1182.1 573.238,1196.1 508.5,1180C 462.345,1164.5 432.512,1133.33 419,1086.5C 415.185,1066.62 414.519,1046.62 417,1026.5C 425.995,984.539 432.661,942.206 437,899.5C 439.387,871.735 437.054,844.402 430,817.5C 425.678,805.205 419.678,793.871 412,783.5C 403.03,773.53 393.697,763.863 384,754.5C 375.623,745.125 367.623,735.458 360,725.5C 350.248,715.816 340.581,706.15 331,696.5C 312.023,673.215 301.523,646.715 299.5,617C 289.287,545.851 319.953,504.851 391.5,494C 455.164,489.663 506.498,512.829 545.5,563.5C 552.763,541.511 562.596,520.844 575,501.5C 593.09,479.697 615.59,464.197 642.5,455C 659.739,448.438 677.406,444.272 695.5,442.5 Z M 1196.5,721.5 C 1194.6,753.305 1192.77,785.305 1191,817.5C 1184,808.846 1178,799.513 1173,789.5C 1172.32,786.45 1171.49,783.45 1170.5,780.5C 1173.38,767.667 1176.88,755.001 1181,742.5C 1185.7,735.076 1190.87,728.076 1196.5,721.5 Z"/></g>
<g><path style="opacity:0.946" fill="#dfae6a" d="M 737.5,499.5 C 721.777,499.147 706.111,499.814 690.5,501.5C 706.031,497.207 721.697,496.54 737.5,499.5 Z"/></g>
<g><path style="opacity:0.996" fill="#fec678" d="M 737.5,499.5 C 764.335,503.67 780.335,519.004 785.5,545.5C 786.277,556.148 786.61,566.815 786.5,577.5C 780.698,615.428 766.865,650.094 745,681.5C 698.963,735.71 671.796,798.377 663.5,869.5C 661.951,884.467 661.284,899.634 661.5,915C 661.315,931.362 661.981,947.528 663.5,963.5C 666.081,989.144 668.414,1014.81 670.5,1040.5C 671.798,1057.78 666.298,1072.45 654,1084.5C 633.898,1103.31 610.731,1117.14 584.5,1126C 579.569,1127.32 574.569,1128.15 569.5,1128.5C 549.5,1129.83 529.5,1129.83 509.5,1128.5C 492.275,1125.44 477.775,1117.44 466,1104.5C 463.196,1100.56 461.196,1096.22 460,1091.5C 458.502,1081.55 458.169,1071.55 459,1061.5C 463.31,1036.78 467.81,1012.12 472.5,987.5C 474.934,979.482 476.267,971.149 476.5,962.5C 476.264,959.391 476.597,956.391 477.5,953.5C 479.946,944.124 480.946,934.457 480.5,924.5C 480.5,908.833 480.5,893.167 480.5,877.5C 480.327,868.113 479.494,858.78 478,849.5C 477.617,848.944 477.117,848.611 476.5,848.5C 469.474,807.787 452.308,772.12 425,741.5C 407.891,724.73 391.891,707.063 377,688.5C 369,680.5 361,672.5 353,664.5C 347.621,657.742 344.454,650.075 343.5,641.5C 342.192,627.168 342.192,612.835 343.5,598.5C 345.901,586.253 351.901,576.086 361.5,568C 374.205,559.15 388.205,553.317 403.5,550.5C 419.503,549.208 435.503,549.208 451.5,550.5C 476.157,554.428 496.991,565.428 514,583.5C 525.659,598.771 531.492,616.105 531.5,635.5C 531.457,646.191 531.957,656.857 533,667.5C 533.232,668.737 533.732,669.737 534.5,670.5C 538.055,687.553 548.222,698.22 565,702.5C 568.415,702.094 571.082,700.428 573,697.5C 575.574,693.538 577.074,689.205 577.5,684.5C 576.312,677.436 574.812,670.436 573,663.5C 572.289,656.785 572.622,650.118 574,643.5C 581.362,613.745 591.696,585.078 605,557.5C 619.093,534.676 638.926,518.843 664.5,510C 672.889,506.259 681.556,503.426 690.5,501.5C 706.111,499.814 721.777,499.147 737.5,499.5 Z"/></g>
<g><path style="opacity:0.996" fill="#fe788d" d="M 992.5,571.5 C 993.812,587.499 993.812,603.499 992.5,619.5C 990.611,631.631 989.278,643.965 988.5,656.5C 984.8,674.892 989.467,690.726 1002.5,704C 1017.61,713.679 1025.94,709.512 1027.5,691.5C 1028.89,686.731 1029.56,681.731 1029.5,676.5C 1030.4,664.102 1031.73,651.769 1033.5,639.5C 1035.31,630.363 1036.64,621.03 1037.5,611.5C 1044.26,567.076 1069.59,540.076 1113.5,530.5C 1129.13,528.382 1144.79,528.048 1160.5,529.5C 1180.57,531.729 1194.07,542.395 1201,561.5C 1206.6,577.384 1206.93,593.384 1202,609.5C 1198.94,616.621 1195.61,623.621 1192,630.5C 1180.11,648.394 1167.44,665.728 1154,682.5C 1120.97,726.656 1118.97,772.323 1148,819.5C 1154.09,828.675 1160.42,837.675 1167,846.5C 1179.48,860.799 1191.48,875.466 1203,890.5C 1216.47,910.456 1226.47,932.122 1233,955.5C 1240.96,985.311 1247.13,1015.48 1251.5,1046C 1248.89,1072.28 1234.56,1088.28 1208.5,1094C 1194.56,1096.33 1180.56,1098.16 1166.5,1099.5C 1156.43,1100.46 1146.43,1101.96 1136.5,1104C 1122.76,1104.89 1109.09,1104.39 1095.5,1102.5C 1067.06,1098.23 1050.23,1081.9 1045,1053.5C 1037.53,1015.11 1032.03,976.446 1028.5,937.5C 1027.91,927.134 1026.91,916.801 1025.5,906.5C 1025.44,904.36 1024.78,902.694 1023.5,901.5C 1020.73,878.576 1016.57,855.909 1011,833.5C 1007.75,824.267 1002.25,816.767 994.5,811C 988.963,807.187 983.297,806.854 977.5,810C 973.228,817.186 971.562,825.02 972.5,833.5C 972.913,845.862 973.746,858.195 975,870.5C 980.226,904.632 986.226,938.632 993,972.5C 994.493,981.109 995.326,989.775 995.5,998.5C 995.307,1009.84 994.973,1021.17 994.5,1032.5C 990.038,1070.43 971.371,1098.93 938.5,1118C 929.088,1123.08 919.088,1126.25 908.5,1127.5C 895.817,1127.63 883.15,1127.29 870.5,1126.5C 857.681,1123.59 846.348,1117.76 836.5,1109C 819.984,1094.65 810.984,1076.49 809.5,1054.5C 808.85,1045.32 807.85,1036.32 806.5,1027.5C 806.539,1009.83 806.873,992.16 807.5,974.5C 811.716,934.574 815.049,894.574 817.5,854.5C 818.661,841.006 818.827,827.34 818,813.5C 817.809,811.292 817.309,809.292 816.5,807.5C 816.5,806.5 816.5,805.5 816.5,804.5C 816.245,794.789 815.411,785.123 814,775.5C 814.03,772.639 813.197,770.305 811.5,768.5C 810.646,762.858 809.98,757.191 809.5,751.5C 809.468,746.609 808.801,741.943 807.5,737.5C 806.461,724.9 801.628,713.9 793,704.5C 792.077,702.966 791.577,701.299 791.5,699.5C 797.305,686.551 803.138,673.551 809,660.5C 823.776,625.072 828.443,588.406 823,550.5C 836.533,537.483 852.7,529.316 871.5,526C 893.467,523.18 915.467,522.846 937.5,525C 957.476,528.23 973.642,537.73 986,553.5C 989.463,559.057 991.629,565.057 992.5,571.5 Z"/></g>
<g><path style="opacity:0.894" fill="#d76677" d="M 1160.5,529.5 C 1144.79,528.048 1129.13,528.382 1113.5,530.5C 1129.11,526.075 1144.78,525.742 1160.5,529.5 Z"/></g>
<g><path style="opacity:0.861" fill="#0086c3" d="M 1419.5,545.5 C 1430.99,544.341 1442.66,544.174 1454.5,545C 1461.04,545.331 1467.38,546.165 1473.5,547.5C 1455.54,545.925 1437.54,545.259 1419.5,545.5 Z"/></g>
<g><path style="opacity:0.996" fill="#00b0fe" d="M 1419.5,545.5 C 1437.54,545.259 1455.54,545.925 1473.5,547.5C 1551.99,561.185 1611.49,602.185 1652,670.5C 1673.12,707.427 1685.45,747.094 1689,789.5C 1689.78,808.858 1689.62,828.191 1688.5,847.5C 1687.78,847.918 1687.28,848.584 1687,849.5C 1686.5,853.152 1686.33,856.818 1686.5,860.5C 1674.99,940.045 1638.65,1005.55 1577.5,1057C 1503.52,1114.33 1421.86,1128.66 1332.5,1100C 1318.65,1094.74 1305.32,1088.41 1292.5,1081C 1290.95,1079.79 1289.78,1078.29 1289,1076.5C 1288.5,1069.17 1288.33,1061.84 1288.5,1054.5C 1288.84,1049.88 1288.18,1045.54 1286.5,1041.5C 1283.58,1027.91 1280.92,1014.25 1278.5,1000.5C 1278.83,997.772 1278.16,995.438 1276.5,993.5C 1276.5,992.833 1276.5,992.167 1276.5,991.5C 1276.83,988.772 1276.16,986.438 1274.5,984.5C 1274.48,982.435 1274.15,980.435 1273.5,978.5C 1273.83,975.772 1273.16,973.438 1271.5,971.5C 1263.8,938.114 1251.14,906.781 1233.5,877.5C 1234.1,866.844 1234.43,856.177 1234.5,845.5C 1234.4,837.809 1234.74,830.142 1235.5,822.5C 1237.18,813.389 1237.84,804.055 1237.5,794.5C 1237.5,792.5 1237.5,790.5 1237.5,788.5C 1238.31,786.708 1238.81,784.708 1239,782.5C 1239.5,775.842 1239.67,769.175 1239.5,762.5C 1239.5,760.5 1239.5,758.5 1239.5,756.5C 1241.16,747.722 1241.82,738.722 1241.5,729.5C 1243.11,718.709 1243.78,707.709 1243.5,696.5C 1243.5,694.167 1243.5,691.833 1243.5,689.5C 1245.19,681.061 1245.86,672.395 1245.5,663.5C 1245.39,655.482 1245.72,647.482 1246.5,639.5C 1246.35,635.088 1245.68,630.754 1244.5,626.5C 1247.13,620.101 1251.13,614.601 1256.5,610C 1262.68,607.081 1268.34,603.414 1273.5,599C 1278.92,596.861 1284.25,594.528 1289.5,592C 1328.62,564.904 1371.95,549.404 1419.5,545.5 Z"/></g>
<g><path style="opacity:0.929" fill="#ddac69" d="M 451.5,550.5 C 435.503,549.208 419.503,549.208 403.5,550.5C 419.494,546.531 435.494,546.531 451.5,550.5 Z"/></g>
<g><path style="opacity:0.876" fill="#cd9f61" d="M 785.5,545.5 C 787.014,551.595 787.68,557.928 787.5,564.5C 787.499,569.013 787.166,573.347 786.5,577.5C 786.61,566.815 786.277,556.148 785.5,545.5 Z"/></g>
<g><path style="opacity:0.882" fill="#c45d6c" d="M 992.5,571.5 C 994.031,579.274 994.698,587.274 994.5,595.5C 994.698,603.726 994.031,611.726 992.5,619.5C 993.812,603.499 993.812,587.499 992.5,571.5 Z"/></g>
<g><path style="opacity:0.957" fill="#cb6070" d="M 1037.5,611.5 C 1036.64,621.03 1035.31,630.363 1033.5,639.5C 1033.86,629.895 1035.2,620.561 1037.5,611.5 Z"/></g>
<g><path style="opacity:0.882" fill="#cfa162" d="M 343.5,598.5 C 342.192,612.835 342.192,627.168 343.5,641.5C 341.983,634.228 341.316,626.728 341.5,619C 341.667,613.833 341.833,608.667 342,603.5C 342.198,601.618 342.698,599.952 343.5,598.5 Z"/></g>
<g><path style="opacity:0.851" fill="#bb5967" d="M 992.5,619.5 C 992.176,632.081 990.842,644.415 988.5,656.5C 989.278,643.965 990.611,631.631 992.5,619.5 Z"/></g>
<g><path style="opacity:0.902" fill="#c4985c" d="M 531.5,635.5 C 532.769,647.003 533.769,658.669 534.5,670.5C 533.732,669.737 533.232,668.737 533,667.5C 531.957,656.857 531.457,646.191 531.5,635.5 Z"/></g>
<g><path style="opacity:0.904" fill="#007db5" d="M 1245.5,663.5 C 1245.86,672.395 1245.19,681.061 1243.5,689.5C 1243.69,680.648 1244.36,671.981 1245.5,663.5 Z"/></g>
<g><path style="opacity:0.894" fill="#b95866" d="M 1029.5,676.5 C 1029.56,681.731 1028.89,686.731 1027.5,691.5C 1027.44,686.269 1028.11,681.269 1029.5,676.5 Z"/></g>
<g><path style="opacity:0.996" fill="#000000" d="M 1470.5,704.5 C 1484.9,703.45 1495.73,709.117 1503,721.5C 1510.06,734.565 1511.4,748.232 1507,762.5C 1498.02,787.145 1483.85,808.312 1464.5,826C 1451.29,837.597 1437.62,838.264 1423.5,828C 1406.86,813.239 1395.36,795.073 1389,773.5C 1383.65,758.833 1382.32,743.833 1385,728.5C 1388.56,718.046 1395.9,712.713 1407,712.5C 1411.24,712.935 1415.41,713.769 1419.5,715C 1427.49,718.658 1435.15,722.825 1442.5,727.5C 1446.62,722.212 1450.95,717.045 1455.5,712C 1460.32,708.921 1465.32,706.421 1470.5,704.5 Z"/></g>
<g><path style="opacity:0.925" fill="#0086c3" d="M 1243.5,696.5 C 1243.78,707.709 1243.11,718.709 1241.5,729.5C 1241.47,718.306 1242.14,707.306 1243.5,696.5 Z"/></g>
<g><path style="opacity:0.843" fill="#b35463" d="M 807.5,737.5 C 808.801,741.943 809.468,746.609 809.5,751.5C 808.028,747.081 807.362,742.414 807.5,737.5 Z"/></g>
<g><path style="opacity:0.888" fill="#007cb4" d="M 1241.5,729.5 C 1241.82,738.722 1241.16,747.722 1239.5,756.5C 1239.78,747.321 1240.45,738.321 1241.5,729.5 Z"/></g>
<g><path style="opacity:0.914" fill="#007fb8" d="M 1239.5,762.5 C 1239.67,769.175 1239.5,775.842 1239,782.5C 1238.81,784.708 1238.31,786.708 1237.5,788.5C 1237.88,779.662 1238.54,770.995 1239.5,762.5 Z"/></g>
<g><path style="opacity:0.835" fill="#bb5967" d="M 811.5,768.5 C 813.197,770.305 814.03,772.639 814,775.5C 815.411,785.123 816.245,794.789 816.5,804.5C 814.99,792.604 813.323,780.604 811.5,768.5 Z"/></g>
<g><path style="opacity:0.89" fill="#007ab1" d="M 1237.5,794.5 C 1237.84,804.055 1237.18,813.389 1235.5,822.5C 1235.8,812.99 1236.47,803.657 1237.5,794.5 Z"/></g>
<g><path style="opacity:0.88" fill="#c45c6c" d="M 816.5,807.5 C 817.309,809.292 817.809,811.292 818,813.5C 818.827,827.34 818.661,841.006 817.5,854.5C 817.629,838.82 817.296,823.153 816.5,807.5 Z"/></g>
<g><path style="opacity:0.902" fill="#bc9259" d="M 476.5,848.5 C 477.117,848.611 477.617,848.944 478,849.5C 479.494,858.78 480.327,868.113 480.5,877.5C 479.264,867.955 477.93,858.289 476.5,848.5 Z"/></g>
<g><path style="opacity:0.898" fill="#007fb7" d="M 1688.5,847.5 C 1688.38,852.049 1687.71,856.382 1686.5,860.5C 1686.33,856.818 1686.5,853.152 1687,849.5C 1687.28,848.584 1687.78,847.918 1688.5,847.5 Z"/></g>
<g><path style="opacity:0.918" fill="#0083bd" d="M 1234.5,845.5 C 1234.43,856.177 1234.1,866.844 1233.5,877.5C 1232.33,876.504 1231.67,875.171 1231.5,873.5C 1232.67,864.038 1233.67,854.704 1234.5,845.5 Z"/></g>
<g><path style="opacity:0.847" fill="#c99c5f" d="M 663.5,869.5 C 662.22,900.831 662.22,932.165 663.5,963.5C 661.981,947.528 661.315,931.362 661.5,915C 661.284,899.634 661.951,884.467 663.5,869.5 Z"/></g>
<g><path style="opacity:0.863" fill="#bb5967" d="M 1023.5,901.5 C 1024.78,902.694 1025.44,904.36 1025.5,906.5C 1026.91,916.801 1027.91,927.134 1028.5,937.5C 1026.68,925.653 1025.02,913.653 1023.5,901.5 Z"/></g>
<g><path style="opacity:0.902" fill="#d1a363" d="M 480.5,924.5 C 480.946,934.457 479.946,944.124 477.5,953.5C 478.151,943.653 479.151,933.987 480.5,924.5 Z"/></g>
<g><path style="opacity:0.902" fill="#cea062" d="M 476.5,962.5 C 476.267,971.149 474.934,979.482 472.5,987.5C 473.477,978.978 474.81,970.645 476.5,962.5 Z"/></g>
<g><path style="opacity:0.867" fill="#006998" d="M 1271.5,971.5 C 1273.16,973.438 1273.83,975.772 1273.5,978.5C 1272.39,976.401 1271.72,974.067 1271.5,971.5 Z"/></g>
<g><path style="opacity:0.867" fill="#006897" d="M 1274.5,984.5 C 1276.16,986.438 1276.83,988.772 1276.5,991.5C 1275.39,989.401 1274.72,987.067 1274.5,984.5 Z"/></g>
<g><path style="opacity:0.863" fill="#006796" d="M 1276.5,993.5 C 1278.16,995.438 1278.83,997.772 1278.5,1000.5C 1277.39,998.401 1276.72,996.067 1276.5,993.5 Z"/></g>
<g><path style="opacity:0.863" fill="#c95f6f" d="M 807.5,974.5 C 806.873,992.16 806.539,1009.83 806.5,1027.5C 805.834,1020.67 805.5,1013.67 805.5,1006.5C 805.34,995.626 806.007,984.96 807.5,974.5 Z"/></g>
<g><path style="opacity:0.924" fill="#ca6070" d="M 995.5,998.5 C 996.166,1002.65 996.499,1006.99 996.5,1011.5C 996.628,1018.72 995.961,1025.72 994.5,1032.5C 994.973,1021.17 995.307,1009.84 995.5,998.5 Z"/></g>
<g><path style="opacity:0.851" fill="#ba5867" d="M 806.5,1027.5 C 807.85,1036.32 808.85,1045.32 809.5,1054.5C 807.418,1045.76 806.418,1036.76 806.5,1027.5 Z"/></g>
<g><path style="opacity:0.878" fill="#006b9b" d="M 1286.5,1041.5 C 1288.18,1045.54 1288.84,1049.88 1288.5,1054.5C 1287.44,1050.36 1286.77,1046.03 1286.5,1041.5 Z"/></g>
<g><path style="opacity:0.901" fill="#d76677" d="M 1166.5,1099.5 C 1152.17,1103.11 1137.5,1105.44 1122.5,1106.5C 1113.21,1106.12 1104.21,1104.79 1095.5,1102.5C 1109.09,1104.39 1122.76,1104.89 1136.5,1104C 1146.43,1101.96 1156.43,1100.46 1166.5,1099.5 Z"/></g>
<g><path style="opacity:0.902" fill="#d76677" d="M 870.5,1126.5 C 883.15,1127.29 895.817,1127.63 908.5,1127.5C 895.77,1130.16 883.103,1129.83 870.5,1126.5 Z"/></g>
<g><path style="opacity:0.943" fill="#ddac69" d="M 509.5,1128.5 C 529.5,1129.83 549.5,1129.83 569.5,1128.5C 549.498,1132.5 529.498,1132.5 509.5,1128.5 Z"/></g>
</svg>
